<svg width="14" height="22" viewBox="0 0 14 22" fill="none" xmlns="http://www.w3.org/2000/svg">
<path d="M0.0078125 11.1289V9.14648C0.0078125 8.94466 0.0794271 8.77214 0.222656 8.62891C0.365885 8.48568 0.538411 8.41406 0.740234 8.41406C0.948568 8.41406 1.12435 8.48568 1.26758 8.62891C1.41081 8.77214 1.48242 8.94466 1.48242 9.14648V11.0703C1.48242 12.1771 1.71029 13.1471 2.16602 13.9805C2.62174 14.8138 3.26302 15.4616 4.08984 15.9238C4.91667 16.3796 5.88672 16.6074 7 16.6074C8.11328 16.6074 9.08008 16.3796 9.90039 15.9238C10.7272 15.4616 11.3685 14.8138 11.8242 13.9805C12.2799 13.1471 12.5078 12.1771 12.5078 11.0703V9.14648C12.5078 8.94466 12.5794 8.77214 12.7227 8.62891C12.8659 8.48568 13.0417 8.41406 13.25 8.41406C13.4518 8.41406 13.6243 8.48568 13.7676 8.62891C13.9108 8.77214 13.9824 8.94466 13.9824 9.14648V11.1289C13.9824 12.4049 13.7188 13.5378 13.1914 14.5273C12.6706 15.5169 11.9414 16.3112 11.0039 16.9102C10.0664 17.5026 8.97591 17.8509 7.73242 17.9551V20.2305H11.3555C11.5638 20.2305 11.7396 20.3021 11.8828 20.4453C12.026 20.5885 12.0977 20.7643 12.0977 20.9727C12.0977 21.1745 12.026 21.347 11.8828 21.4902C11.7396 21.6335 11.5638 21.7051 11.3555 21.7051H2.63477C2.42643 21.7051 2.25065 21.6335 2.10742 21.4902C1.96419 21.347 1.89258 21.1745 1.89258 20.9727C1.89258 20.7643 1.96419 20.5885 2.10742 20.4453C2.25065 20.3021 2.42643 20.2305 2.63477 20.2305H6.25781V17.9551C5.01432 17.8509 3.92383 17.5026 2.98633 16.9102C2.04883 16.3112 1.31641 15.5169 0.789062 14.5273C0.268229 13.5378 0.0078125 12.4049 0.0078125 11.1289ZM7 14.5078C6.34896 14.5078 5.7793 14.3581 5.29102 14.0586C4.80273 13.7591 4.42188 13.3457 4.14844 12.8184C3.875 12.2845 3.73828 11.6693 3.73828 10.9727V4.43945C3.73828 3.74284 3.875 3.13086 4.14844 2.60352C4.42188 2.06966 4.80273 1.65299 5.29102 1.35352C5.7793 1.05404 6.34896 0.904297 7 0.904297C7.64453 0.904297 8.21094 1.05404 8.69922 1.35352C9.19401 1.65299 9.57487 2.06966 9.8418 2.60352C10.1152 3.13086 10.252 3.74284 10.252 4.43945V10.9727C10.252 11.6693 10.1152 12.2845 9.8418 12.8184C9.57487 13.3457 9.19401 13.7591 8.69922 14.0586C8.21094 14.3581 7.64453 14.5078 7 14.5078Z" fill="#3C3C3C"/>
</svg>
